<svg width="48" height="48" viewBox="0 0 48 48" fill="none" xmlns="http://www.w3.org/2000/svg">
  <g transform="translate(8, 8)">
    <!-- Swimsuit top -->
    <path d="M6 8 C6 6 8 4 12 4 L20 4 C24 4 26 6 26 8 L26 16 C26 18 24 20 20 20 L12 20 C8 20 6 18 6 16 Z" 
          fill="#faf9f7" stroke="#87ceeb" stroke-width="2" stroke-linecap="round" stroke-linejoin="round"/>
    
    <!-- Swimsuit straps -->
    <path d="M10 4 L8 2" stroke="#87ceeb" stroke-width="2" stroke-linecap="round"/>
    <path d="M22 4 L24 2" stroke="#87ceeb" stroke-width="2" stroke-linecap="round"/>
    
    <!-- Swimsuit bottom -->
    <path d="M8 22 C8 20 10 18 14 18 L18 18 C22 18 24 20 24 22 L24 26 C24 28 22 30 18 30 L14 30 C10 30 8 28 8 26 Z" 
          fill="#faf9f7" stroke="#87ceeb" stroke-width="2" stroke-linecap="round" stroke-linejoin="round"/>
    
    <!-- Decorative wave pattern -->
    <path d="M8 12 Q12 10 16 12 Q20 14 24 12" 
          stroke="#ffd54f" stroke-width="1.5" fill="none" opacity="0.8"/>
    <path d="M8 24 Q12 22 16 24 Q20 26 24 24" 
          stroke="#ffd54f" stroke-width="1.5" fill="none" opacity="0.8"/>
  </g>
</svg>